# xmcd CD database file generated by Grip 2.7
# 
# Track frame offsets:
#       150
#       14477
#       35620
#       56965
#       73945
#       88047
#       107890
#       123412
#       139390
#       154307
# 
# Disc length: 2260 seconds
# 
# Revision: 3
# Processed by: cddbd v1.4b41PL1 Copyright (c) Steve Scherf et al.
# Submitted via: Grip 2.7
# 
DISCID=9908d20a
DTITLE=Chris LeDoux - Powder River
DYEAR=1900
DGENRE=
TTITLE0=Sons of the Pioneers
TTITLE1=Johnson County War
TTITLE2=Home Grown Western Saturday Night
TTITLE3=The Lady is Dancing With Me
TTITLE4=Hard Times
TTITLE5=Song of the Yukon Rose
TTITLE6=Rainbow Rider
TTITLE7=Blue Bonnet Blues
TTITLE8=I've Got to be a Rodeo Man
TTITLE9=Lone Ranger (William Tell Overture)
EXTD=
EXTT0=
EXTT1=
EXTT2=
EXTT3=
EXTT4=
EXTT5=
EXTT6=
EXTT7=
EXTT8=
EXTT9=
PLAYORDER=
